<svg width="400" height="100" viewBox="0 0 400 100" fill="none" xmlns="http://www.w3.org/2000/svg">
  <!-- Icon Group -->
  <g transform="translate(0, 0)">
    <!-- Bars -->
    <!-- Red Bar 1 -->
    <rect x="20" y="55" width="14" height="30" fill="#D32027"/>
    <!-- Red Bar 2 -->
    <rect x="38" y="45" width="14" height="40" fill="#D32027"/>
    <!-- Blue Bar 3 -->
    <rect x="56" y="35" width="14" height="50" fill="#005A9C"/>

    <!-- Jagged Line Arrow (Dark Blue) -->
    <path d="M 8 55 L 35 28 L 45 38 L 70 13 L 62 13 L 80 0 L 85 22 L 75 16 L 45 46 L 35 36 L 12 59 Z" fill="#005A9C"/>

    <!-- Curved Arrow (Dark Blue) -->
    <path d="M 6 65 C 5 95, 30 105, 65 90 L 75 85 L 70 75 L 90 70 L 85 90 L 80 80 C 40 100, 10 100, 12 65 Z" fill="#005A9C"/>
  </g>

  <!-- Text Group -->
  <text x="100" y="72" font-family="system-ui, -apple-system, sans-serif" font-weight="800" font-size="44" letter-spacing="-1">
    <tspan fill="#005A9C">Edulpha</tspan>
    <tspan fill="#D32027"> AI</tspan>
  </text>
</svg>
